<svg xmlns="http://www.w3.org/2000/svg" viewBox="0 0 1082.51 669.81"><defs><style>.cls-1,.cls-2{fill:#fff;}.cls-2{font-size:227.59px;font-family:Righteous-Regular, Righteous;}.cls-3{letter-spacing:-0.03em;}</style></defs><title>Asset 1</title><g id="Layer_2" data-name="Layer 2"><g id="Layer_1-2" data-name="Layer 1"><path class="cls-1" d="M229.07,294.45A162.2,162.2,0,0,1,318.25,1V1.2c1.46-.16,2.94-.27,4.43-.31l1.5,0H502.06a54.06,54.06,0,1,1,0,108.12H324.18a52.9,52.9,0,0,1-5.93-.33v.66a54.06,54.06,0,0,0,0,107.47v.33a54.06,54.06,0,0,1,2.06,108.09l-2.06-.07c-2.7-.09-5.39-.26-8.05-.48a161.37,161.37,0,0,1-81.13-30.21"/><circle class="cls-1" cx="688.21" cy="54.06" r="54.06"/><path class="cls-1" d="M121.62,61.83a55.3,55.3,0,0,0,.56-7.77,54.06,54.06,0,0,0-108.12,0,55.3,55.3,0,0,0,.56,7.77V263.3a55.26,55.26,0,0,0-.56,7.76,54.06,54.06,0,1,0,108.12,0,55.26,55.26,0,0,0-.56-7.76Z"/><text class="cls-2" transform="translate(0 611.36)"><tspan class="cls-3">K</tspan><tspan x="134.69" y="0">olby Sisk</tspan></text></g></g></svg>